<mxfile host="app.diagrams.net" modified="2020-09-07T13:35:56.715Z" agent="5.0 (Windows NT 10.0; Win64; x64) AppleWebKit/537.36 (KHTML, like Gecko) Chrome/85.0.4183.83 Safari/537.36" etag="jnUoixAqUBc85Bl_YukM" version="13.6.6" type="github">
  <diagram id="gdwzlx7IDHm3I5naiis_" name="Page-1">
    <mxGraphModel dx="2062" dy="1126" grid="1" gridSize="10" guides="1" tooltips="1" connect="1" arrows="1" fold="1" page="1" pageScale="1" pageWidth="827" pageHeight="1169" math="0" shadow="0">
      <root>
        <mxCell id="0" />
        <mxCell id="1" parent="0" />
        <mxCell id="tpB0tIs3vWVVksm21lUB-1" value="" style="ellipse;html=1;shape=startState;fillColor=#030303;" parent="1" vertex="1">
          <mxGeometry x="385" width="30" height="30" as="geometry" />
        </mxCell>
        <mxCell id="tpB0tIs3vWVVksm21lUB-2" value="" style="edgeStyle=orthogonalEdgeStyle;html=1;verticalAlign=bottom;endArrow=open;endSize=8;" parent="1" source="tpB0tIs3vWVVksm21lUB-1" edge="1">
          <mxGeometry relative="1" as="geometry">
            <mxPoint x="400" y="90" as="targetPoint" />
          </mxGeometry>
        </mxCell>
        <mxCell id="tpB0tIs3vWVVksm21lUB-3" value="Initialize 3 currency objects" style="rounded=1;whiteSpace=wrap;html=1;arcSize=40;" parent="1" vertex="1">
          <mxGeometry x="340" y="90" width="120" height="40" as="geometry" />
        </mxCell>
        <mxCell id="tpB0tIs3vWVVksm21lUB-4" value="" style="edgeStyle=orthogonalEdgeStyle;html=1;verticalAlign=bottom;endArrow=open;endSize=8;" parent="1" source="tpB0tIs3vWVVksm21lUB-3" edge="1">
          <mxGeometry relative="1" as="geometry">
            <mxPoint x="400" y="190" as="targetPoint" />
          </mxGeometry>
        </mxCell>
        <mxCell id="tpB0tIs3vWVVksm21lUB-8" value="User chooses currency to work with" style="rounded=1;whiteSpace=wrap;html=1;arcSize=40;" parent="1" vertex="1">
          <mxGeometry x="340" y="190" width="120" height="40" as="geometry" />
        </mxCell>
        <mxCell id="tpB0tIs3vWVVksm21lUB-9" value="" style="edgeStyle=orthogonalEdgeStyle;html=1;verticalAlign=bottom;endArrow=open;endSize=8;entryX=0.5;entryY=0;entryDx=0;entryDy=0;" parent="1" source="tpB0tIs3vWVVksm21lUB-8" target="tpB0tIs3vWVVksm21lUB-11" edge="1">
          <mxGeometry relative="1" as="geometry">
            <mxPoint x="400" y="250" as="targetPoint" />
          </mxGeometry>
        </mxCell>
        <mxCell id="tpB0tIs3vWVVksm21lUB-17" style="edgeStyle=orthogonalEdgeStyle;rounded=0;orthogonalLoop=1;jettySize=auto;html=1;exitX=0;exitY=1;exitDx=0;exitDy=0;" parent="1" source="tpB0tIs3vWVVksm21lUB-11" edge="1">
          <mxGeometry relative="1" as="geometry">
            <mxPoint x="320" y="350" as="targetPoint" />
          </mxGeometry>
        </mxCell>
        <mxCell id="tpB0tIs3vWVVksm21lUB-18" style="edgeStyle=orthogonalEdgeStyle;rounded=0;orthogonalLoop=1;jettySize=auto;html=1;exitX=0.5;exitY=1;exitDx=0;exitDy=0;" parent="1" source="tpB0tIs3vWVVksm21lUB-11" edge="1">
          <mxGeometry relative="1" as="geometry">
            <mxPoint x="400" y="350" as="targetPoint" />
          </mxGeometry>
        </mxCell>
        <mxCell id="tpB0tIs3vWVVksm21lUB-19" style="edgeStyle=orthogonalEdgeStyle;rounded=0;orthogonalLoop=1;jettySize=auto;html=1;exitX=1;exitY=1;exitDx=0;exitDy=0;" parent="1" source="tpB0tIs3vWVVksm21lUB-11" edge="1">
          <mxGeometry relative="1" as="geometry">
            <mxPoint x="480" y="350" as="targetPoint" />
          </mxGeometry>
        </mxCell>
        <mxCell id="tpB0tIs3vWVVksm21lUB-66" style="edgeStyle=orthogonalEdgeStyle;rounded=0;orthogonalLoop=1;jettySize=auto;html=1;exitX=1;exitY=0.5;exitDx=0;exitDy=0;entryX=1;entryY=0.5;entryDx=0;entryDy=0;strokeColor=#050000;fontSize=10;" parent="1" source="tpB0tIs3vWVVksm21lUB-11" target="tpB0tIs3vWVVksm21lUB-64" edge="1">
          <mxGeometry relative="1" as="geometry">
            <Array as="points">
              <mxPoint x="520" y="300" />
              <mxPoint x="520" y="1045" />
            </Array>
          </mxGeometry>
        </mxCell>
        <mxCell id="tpB0tIs3vWVVksm21lUB-11" value="[switch]" style="rhombus;whiteSpace=wrap;html=1;" parent="1" vertex="1">
          <mxGeometry x="360" y="280" width="80" height="40" as="geometry" />
        </mxCell>
        <mxCell id="tpB0tIs3vWVVksm21lUB-23" style="edgeStyle=orthogonalEdgeStyle;rounded=0;orthogonalLoop=1;jettySize=auto;html=1;exitX=0.5;exitY=1;exitDx=0;exitDy=0;" parent="1" source="tpB0tIs3vWVVksm21lUB-20" edge="1">
          <mxGeometry relative="1" as="geometry">
            <mxPoint x="400" y="400" as="targetPoint" />
          </mxGeometry>
        </mxCell>
        <mxCell id="tpB0tIs3vWVVksm21lUB-20" value="USD" style="html=1;" parent="1" vertex="1">
          <mxGeometry x="290" y="330" width="60" height="30" as="geometry" />
        </mxCell>
        <mxCell id="tpB0tIs3vWVVksm21lUB-24" style="edgeStyle=orthogonalEdgeStyle;rounded=0;orthogonalLoop=1;jettySize=auto;html=1;exitX=0.5;exitY=1;exitDx=0;exitDy=0;" parent="1" source="tpB0tIs3vWVVksm21lUB-21" edge="1">
          <mxGeometry relative="1" as="geometry">
            <mxPoint x="400" y="400" as="targetPoint" />
          </mxGeometry>
        </mxCell>
        <mxCell id="tpB0tIs3vWVVksm21lUB-21" value="GBP" style="html=1;" parent="1" vertex="1">
          <mxGeometry x="367.5" y="330" width="65" height="30" as="geometry" />
        </mxCell>
        <mxCell id="tpB0tIs3vWVVksm21lUB-25" style="edgeStyle=orthogonalEdgeStyle;rounded=0;orthogonalLoop=1;jettySize=auto;html=1;exitX=0.5;exitY=1;exitDx=0;exitDy=0;" parent="1" source="tpB0tIs3vWVVksm21lUB-22" edge="1">
          <mxGeometry relative="1" as="geometry">
            <mxPoint x="400" y="400" as="targetPoint" />
          </mxGeometry>
        </mxCell>
        <mxCell id="tpB0tIs3vWVVksm21lUB-22" value="SEK" style="html=1;" parent="1" vertex="1">
          <mxGeometry x="450" y="330" width="60" height="30" as="geometry" />
        </mxCell>
        <mxCell id="tpB0tIs3vWVVksm21lUB-26" value="[switch]" style="rhombus;whiteSpace=wrap;html=1;" parent="1" vertex="1">
          <mxGeometry x="360" y="400" width="80" height="40" as="geometry" />
        </mxCell>
        <mxCell id="tpB0tIs3vWVVksm21lUB-27" value="User choose to convert to or from NOK" style="rounded=1;whiteSpace=wrap;html=1;arcSize=40;" parent="1" vertex="1">
          <mxGeometry x="340" y="485" width="120" height="40" as="geometry" />
        </mxCell>
        <mxCell id="tpB0tIs3vWVVksm21lUB-28" value="" style="edgeStyle=orthogonalEdgeStyle;html=1;verticalAlign=bottom;endArrow=open;endSize=8;" parent="1" source="tpB0tIs3vWVVksm21lUB-27" edge="1">
          <mxGeometry relative="1" as="geometry">
            <mxPoint x="400" y="585" as="targetPoint" />
          </mxGeometry>
        </mxCell>
        <mxCell id="tpB0tIs3vWVVksm21lUB-29" value="" style="html=1;verticalAlign=bottom;endArrow=block;strokeColor=#050000;entryX=0.5;entryY=0;entryDx=0;entryDy=0;exitX=0.5;exitY=1;exitDx=0;exitDy=0;" parent="1" source="tpB0tIs3vWVVksm21lUB-26" target="tpB0tIs3vWVVksm21lUB-27" edge="1">
          <mxGeometry width="80" relative="1" as="geometry">
            <mxPoint x="370" y="450" as="sourcePoint" />
            <mxPoint x="450" y="450" as="targetPoint" />
          </mxGeometry>
        </mxCell>
        <mxCell id="tpB0tIs3vWVVksm21lUB-45" style="edgeStyle=orthogonalEdgeStyle;rounded=0;orthogonalLoop=1;jettySize=auto;html=1;exitX=0.5;exitY=1;exitDx=0;exitDy=0;entryX=1;entryY=0;entryDx=0;entryDy=0;fontSize=10;" parent="1" source="tpB0tIs3vWVVksm21lUB-30" target="tpB0tIs3vWVVksm21lUB-42" edge="1">
          <mxGeometry relative="1" as="geometry" />
        </mxCell>
        <mxCell id="tpB0tIs3vWVVksm21lUB-46" style="edgeStyle=orthogonalEdgeStyle;rounded=0;orthogonalLoop=1;jettySize=auto;html=1;exitX=0.5;exitY=1;exitDx=0;exitDy=0;entryX=0;entryY=0;entryDx=0;entryDy=0;fontSize=10;" parent="1" source="tpB0tIs3vWVVksm21lUB-30" target="tpB0tIs3vWVVksm21lUB-40" edge="1">
          <mxGeometry relative="1" as="geometry" />
        </mxCell>
        <mxCell id="tpB0tIs3vWVVksm21lUB-65" style="edgeStyle=orthogonalEdgeStyle;rounded=0;orthogonalLoop=1;jettySize=auto;html=1;exitX=1;exitY=0.5;exitDx=0;exitDy=0;entryX=1;entryY=0.5;entryDx=0;entryDy=0;fontSize=10;" parent="1" source="tpB0tIs3vWVVksm21lUB-30" target="tpB0tIs3vWVVksm21lUB-64" edge="1">
          <mxGeometry relative="1" as="geometry">
            <Array as="points">
              <mxPoint x="520" y="605" />
              <mxPoint x="520" y="1045" />
            </Array>
          </mxGeometry>
        </mxCell>
        <mxCell id="tpB0tIs3vWVVksm21lUB-30" value="[switch]" style="rhombus;whiteSpace=wrap;html=1;" parent="1" vertex="1">
          <mxGeometry x="360" y="585" width="80" height="40" as="geometry" />
        </mxCell>
        <mxCell id="tpB0tIs3vWVVksm21lUB-33" value="case 3" style="text;strokeColor=none;fillColor=none;align=left;verticalAlign=top;spacingLeft=4;spacingRight=4;overflow=hidden;rotatable=0;points=[[0,0.5],[1,0.5]];portConstraint=eastwest;fontSize=10;" parent="1" vertex="1">
          <mxGeometry x="480" y="304" width="50" height="26" as="geometry" />
        </mxCell>
        <mxCell id="tpB0tIs3vWVVksm21lUB-35" value="case 1" style="text;strokeColor=none;fillColor=none;align=left;verticalAlign=top;spacingLeft=4;spacingRight=4;overflow=hidden;rotatable=0;points=[[0,0.5],[1,0.5]];portConstraint=eastwest;fontSize=10;" parent="1" vertex="1">
          <mxGeometry x="280" y="304" width="50" height="26" as="geometry" />
        </mxCell>
        <mxCell id="tpB0tIs3vWVVksm21lUB-36" value="case 2" style="text;strokeColor=none;fillColor=none;align=left;verticalAlign=top;spacingLeft=4;spacingRight=4;overflow=hidden;rotatable=0;points=[[0,0.5],[1,0.5]];portConstraint=eastwest;fontSize=10;" parent="1" vertex="1">
          <mxGeometry x="365" y="310" width="50" height="26" as="geometry" />
        </mxCell>
        <mxCell id="tpB0tIs3vWVVksm21lUB-54" style="edgeStyle=orthogonalEdgeStyle;rounded=0;orthogonalLoop=1;jettySize=auto;html=1;exitX=0;exitY=1;exitDx=0;exitDy=0;entryX=0.5;entryY=0;entryDx=0;entryDy=0;fontSize=10;" parent="1" source="tpB0tIs3vWVVksm21lUB-40" target="tpB0tIs3vWVVksm21lUB-51" edge="1">
          <mxGeometry relative="1" as="geometry" />
        </mxCell>
        <mxCell id="tpB0tIs3vWVVksm21lUB-40" value="To NOK" style="html=1;fontSize=10;" parent="1" vertex="1">
          <mxGeometry x="410" y="680" width="70" height="20" as="geometry" />
        </mxCell>
        <mxCell id="tpB0tIs3vWVVksm21lUB-52" style="edgeStyle=orthogonalEdgeStyle;rounded=0;orthogonalLoop=1;jettySize=auto;html=1;exitX=1;exitY=1;exitDx=0;exitDy=0;entryX=0.5;entryY=0;entryDx=0;entryDy=0;fontSize=10;" parent="1" source="tpB0tIs3vWVVksm21lUB-42" target="tpB0tIs3vWVVksm21lUB-51" edge="1">
          <mxGeometry relative="1" as="geometry" />
        </mxCell>
        <mxCell id="tpB0tIs3vWVVksm21lUB-42" value="From NOK" style="html=1;fontSize=10;" parent="1" vertex="1">
          <mxGeometry x="320" y="680" width="70" height="20" as="geometry" />
        </mxCell>
        <mxCell id="tpB0tIs3vWVVksm21lUB-48" value="case 1" style="text;html=1;align=center;verticalAlign=middle;whiteSpace=wrap;rounded=0;fontSize=10;" parent="1" vertex="1">
          <mxGeometry x="320" y="660" width="40" height="20" as="geometry" />
        </mxCell>
        <mxCell id="tpB0tIs3vWVVksm21lUB-49" value="case 2" style="text;html=1;align=center;verticalAlign=middle;whiteSpace=wrap;rounded=0;fontSize=10;" parent="1" vertex="1">
          <mxGeometry x="414" y="660" width="40" height="20" as="geometry" />
        </mxCell>
        <mxCell id="tpB0tIs3vWVVksm21lUB-61" style="edgeStyle=orthogonalEdgeStyle;rounded=0;orthogonalLoop=1;jettySize=auto;html=1;exitX=0.5;exitY=1;exitDx=0;exitDy=0;entryX=0.5;entryY=0;entryDx=0;entryDy=0;fontSize=10;" parent="1" source="tpB0tIs3vWVVksm21lUB-51" target="tpB0tIs3vWVVksm21lUB-59" edge="1">
          <mxGeometry relative="1" as="geometry" />
        </mxCell>
        <mxCell id="tpB0tIs3vWVVksm21lUB-51" value="[switch]" style="rhombus;whiteSpace=wrap;html=1;" parent="1" vertex="1">
          <mxGeometry x="360" y="740" width="80" height="40" as="geometry" />
        </mxCell>
        <mxCell id="tpB0tIs3vWVVksm21lUB-59" value="User enters amount to convert" style="rounded=1;whiteSpace=wrap;html=1;arcSize=40;" parent="1" vertex="1">
          <mxGeometry x="340" y="830" width="120" height="40" as="geometry" />
        </mxCell>
        <mxCell id="tpB0tIs3vWVVksm21lUB-60" value="" style="edgeStyle=orthogonalEdgeStyle;html=1;verticalAlign=bottom;endArrow=open;endSize=8;fontSize=10;" parent="1" source="tpB0tIs3vWVVksm21lUB-59" edge="1">
          <mxGeometry relative="1" as="geometry">
            <mxPoint x="400" y="930" as="targetPoint" />
          </mxGeometry>
        </mxCell>
        <mxCell id="tpB0tIs3vWVVksm21lUB-62" value="Print conversion with method call" style="rounded=1;whiteSpace=wrap;html=1;arcSize=40;" parent="1" vertex="1">
          <mxGeometry x="340" y="930" width="120" height="40" as="geometry" />
        </mxCell>
        <mxCell id="tpB0tIs3vWVVksm21lUB-63" value="" style="edgeStyle=orthogonalEdgeStyle;html=1;verticalAlign=bottom;endArrow=open;endSize=8;fontSize=10;" parent="1" source="tpB0tIs3vWVVksm21lUB-62" edge="1">
          <mxGeometry relative="1" as="geometry">
            <mxPoint x="400" y="1030" as="targetPoint" />
          </mxGeometry>
        </mxCell>
        <mxCell id="tpB0tIs3vWVVksm21lUB-64" value="" style="ellipse;html=1;shape=endState;fontSize=10;fillColor=#050505;" parent="1" vertex="1">
          <mxGeometry x="384" y="1030" width="30" height="30" as="geometry" />
        </mxCell>
        <mxCell id="tpB0tIs3vWVVksm21lUB-67" value="default" style="text;strokeColor=none;fillColor=none;align=left;verticalAlign=top;spacingLeft=4;spacingRight=4;overflow=hidden;rotatable=0;points=[[0,0.5],[1,0.5]];portConstraint=eastwest;fontSize=10;" parent="1" vertex="1">
          <mxGeometry x="440" y="280" width="50" height="26" as="geometry" />
        </mxCell>
        <mxCell id="tpB0tIs3vWVVksm21lUB-68" value="default" style="text;align=left;verticalAlign=top;spacingLeft=4;spacingRight=4;overflow=hidden;rotatable=0;points=[[0,0.5],[1,0.5]];portConstraint=eastwest;fontSize=10;" parent="1" vertex="1">
          <mxGeometry x="450" y="585" width="50" height="26" as="geometry" />
        </mxCell>
        <mxCell id="6Cpwgn_0mJcOxdPTHI0A-5" value="Currency" style="swimlane;fontStyle=1;align=center;verticalAlign=top;childLayout=stackLayout;horizontal=1;startSize=26;horizontalStack=0;resizeParent=1;resizeParentMax=0;resizeLast=0;collapsible=1;marginBottom=0;fontSize=10;" parent="1" vertex="1">
          <mxGeometry x="40" y="40" width="250" height="108" as="geometry" />
        </mxCell>
        <mxCell id="6Cpwgn_0mJcOxdPTHI0A-6" value="- exchangeRate: double" style="text;strokeColor=none;fillColor=none;align=left;verticalAlign=top;spacingLeft=4;spacingRight=4;overflow=hidden;rotatable=0;points=[[0,0.5],[1,0.5]];portConstraint=eastwest;" parent="6Cpwgn_0mJcOxdPTHI0A-5" vertex="1">
          <mxGeometry y="26" width="250" height="34" as="geometry" />
        </mxCell>
        <mxCell id="6Cpwgn_0mJcOxdPTHI0A-7" value="" style="line;strokeWidth=1;fillColor=none;align=left;verticalAlign=middle;spacingTop=-1;spacingLeft=3;spacingRight=3;rotatable=0;labelPosition=right;points=[];portConstraint=eastwest;" parent="6Cpwgn_0mJcOxdPTHI0A-5" vertex="1">
          <mxGeometry y="60" width="250" height="8" as="geometry" />
        </mxCell>
        <mxCell id="6Cpwgn_0mJcOxdPTHI0A-8" value="+ convertToNOK(double amount): double&#xa;+ convertFromNOK(double amount): double" style="text;strokeColor=none;fillColor=none;align=left;verticalAlign=top;spacingLeft=4;spacingRight=4;overflow=hidden;rotatable=0;points=[[0,0.5],[1,0.5]];portConstraint=eastwest;" parent="6Cpwgn_0mJcOxdPTHI0A-5" vertex="1">
          <mxGeometry y="68" width="250" height="40" as="geometry" />
        </mxCell>
      </root>
    </mxGraphModel>
  </diagram>
</mxfile>
